<mxfile host="app.diagrams.net" agent="Mozilla/5.0 (Windows NT 10.0; Win64; x64) AppleWebKit/537.36 (KHTML, like Gecko) Chrome/139.0.0.0 Safari/537.36" version="28.1.2">
  <diagram name="Page-1" id="zHsY0uayEq2wXm_f_Erk">
    <mxGraphModel dx="192" dy="555" grid="1" gridSize="1.1810999999999998" guides="1" tooltips="1" connect="1" arrows="1" fold="1" page="1" pageScale="1" pageWidth="827" pageHeight="1169" math="0" shadow="1">
      <root>
        <mxCell id="0" />
        <mxCell id="1" parent="0" />
        <mxCell id="AbUBpdHG_dg_v8YR346F-1" value="" style="rounded=0;whiteSpace=wrap;html=1;labelBackgroundColor=none;strokeWidth=1.1810999999999998;" vertex="1" parent="1">
          <mxGeometry x="827" y="0.36" width="59.055" height="19.685" as="geometry" />
        </mxCell>
        <mxCell id="AbUBpdHG_dg_v8YR346F-2" value="" style="rounded=0;whiteSpace=wrap;html=1;" vertex="1" parent="1">
          <mxGeometry x="1633.92" y="0.36000000000001364" width="19.685" height="19.685" as="geometry" />
        </mxCell>
        <mxCell id="AbUBpdHG_dg_v8YR346F-3" value="" style="rounded=0;whiteSpace=wrap;html=1;labelBackgroundColor=none;strokeWidth=1.1810999999999998;" vertex="1" parent="1">
          <mxGeometry x="826.95" y="1149.03" width="59.055" height="19.685" as="geometry" />
        </mxCell>
        <mxCell id="AbUBpdHG_dg_v8YR346F-4" value="" style="rounded=0;whiteSpace=wrap;html=1;" vertex="1" parent="1">
          <mxGeometry x="1634" y="1149" width="19.685" height="19.685" as="geometry" />
        </mxCell>
      </root>
    </mxGraphModel>
  </diagram>
</mxfile>
